<svg width="17" height="18" viewBox="0 0 17 18" fill="none" xmlns="http://www.w3.org/2000/svg">
<path d="M17 8.8802C17 8.29448 16.9434 7.68987 16.8489 7.12305H8.66772V10.4673H13.3535C13.1645 11.5443 12.541 12.489 11.6152 13.0936L14.4115 15.2664C16.0553 13.736 17 11.5065 17 8.8802Z" fill="#4280EF"/>
<path d="M8.66768 17.3453C11.0106 17.3453 12.9755 16.5707 14.4115 15.2481L11.6152 13.0941C10.8405 13.6232 9.83911 13.9255 8.66768 13.9255C6.40038 13.9255 4.49207 12.3951 3.79299 10.3545L0.921082 12.5651C2.39482 15.4937 5.3801 17.3453 8.66768 17.3453Z" fill="#34A353"/>
<path d="M3.793 10.3352C3.43401 9.25818 3.43401 8.08675 3.793 7.00978L0.921089 4.78027C-0.30703 7.23651 -0.30703 10.1273 0.921089 12.5647L3.793 10.3352Z" fill="#F6B704"/>
<path d="M8.66768 3.43906C9.8958 3.42017 11.105 3.89252 11.993 4.74276L14.4682 2.24873C12.9 0.774989 10.8216 -0.0185644 8.66768 0.000329757C5.3801 0.000329757 2.39482 1.85196 0.921082 4.78055L3.79299 7.01005C4.49207 4.95059 6.40038 3.43906 8.66768 3.43906Z" fill="#E54335"/>
</svg>
